<svg width="20" height="21" viewBox="0 0 20 21" fill="none" xmlns="http://www.w3.org/2000/svg">
<path d="M15.8333 3.41797H4.16667C3.24583 3.41797 2.5 4.1638 2.5 5.08464V16.7513C2.5 17.6721 3.24583 18.418 4.16667 18.418H10.5175V12.6171H8.565V10.3463H10.5175V8.67547C10.5175 6.7388 11.7017 5.68297 13.43 5.68297C14.0125 5.6813 14.5942 5.7113 15.1733 5.77047V7.79547H13.9833C13.0417 7.79547 12.8583 8.24047 12.8583 8.89714V10.343H15.1083L14.8158 12.6138H12.845V18.418H15.8333C16.7542 18.418 17.5 17.6721 17.5 16.7513V5.08464C17.5 4.1638 16.7542 3.41797 15.8333 3.41797Z" fill="#7B7B7B"/>
</svg>
