<svg width="20" height="21" viewBox="0 0 20 21" fill="none" xmlns="http://www.w3.org/2000/svg">
<path d="M6.66667 3.41797C4.36583 3.41797 2.5 5.2838 2.5 7.58464V14.2513C2.5 16.5521 4.36583 18.418 6.66667 18.418H13.3333C15.6342 18.418 17.5 16.5521 17.5 14.2513V7.58464C17.5 5.2838 15.6342 3.41797 13.3333 3.41797H6.66667ZM15 5.08464C15.46 5.08464 15.8333 5.45797 15.8333 5.91797C15.8333 6.37797 15.46 6.7513 15 6.7513C14.54 6.7513 14.1667 6.37797 14.1667 5.91797C14.1667 5.45797 14.54 5.08464 15 5.08464ZM10 6.7513C12.3008 6.7513 14.1667 8.61714 14.1667 10.918C14.1667 13.2188 12.3008 15.0846 10 15.0846C7.69917 15.0846 5.83333 13.2188 5.83333 10.918C5.83333 8.61714 7.69917 6.7513 10 6.7513ZM10 8.41797C9.33696 8.41797 8.70107 8.68136 8.23223 9.1502C7.76339 9.61904 7.5 10.2549 7.5 10.918C7.5 11.581 7.76339 12.2169 8.23223 12.6857C8.70107 13.1546 9.33696 13.418 10 13.418C10.663 13.418 11.2989 13.1546 11.7678 12.6857C12.2366 12.2169 12.5 11.581 12.5 10.918C12.5 10.2549 12.2366 9.61904 11.7678 9.1502C11.2989 8.68136 10.663 8.41797 10 8.41797Z" fill="#7B7B7B"/>
</svg>
