<svg width="20" height="21" viewBox="0 0 20 21" fill="none" xmlns="http://www.w3.org/2000/svg">
<path d="M15.8333 3.41797H4.16667C3.24583 3.41797 2.5 4.1638 2.5 5.08464V16.7513C2.5 17.6721 3.24583 18.418 4.16667 18.418H15.8333C16.7542 18.418 17.5 17.6721 17.5 16.7513V5.08464C17.5 4.1638 16.7542 3.41797 15.8333 3.41797ZM7.5 15.0846H5.3975V9.2513H7.5V15.0846ZM6.41167 8.18214C5.76917 8.18214 5.34 7.7538 5.34 7.18214C5.34 6.61047 5.76833 6.18214 6.4825 6.18214C7.125 6.18214 7.55417 6.61047 7.55417 7.18214C7.55417 7.7538 7.12583 8.18214 6.41167 8.18214ZM15 15.0846H12.965V11.8963C12.965 11.0146 12.4225 10.8113 12.2192 10.8113C12.0158 10.8113 11.3375 10.9471 11.3375 11.8963C11.3375 12.0321 11.3375 15.0846 11.3375 15.0846H9.235V9.2513H11.3375V10.0655C11.6083 9.59047 12.1508 9.2513 13.1683 9.2513C14.1858 9.2513 15 10.0655 15 11.8963V15.0846Z" fill="#7B7B7B"/>
</svg>
