<svg width="21" height="21" viewBox="0 0 21 21" fill="none" xmlns="http://www.w3.org/2000/svg">
<g id="Group 1000003762">
<path id="Vector" d="M5.14286 3.41797C3.96094 3.41797 3 4.37891 3 5.56083V16.2751C3 17.457 3.96094 18.418 5.14286 18.418H15.8571C17.0391 18.418 18 17.457 18 16.2751V5.56083C18 4.37891 17.0391 3.41797 15.8571 3.41797H5.14286ZM15.0904 6.23047L11.615 10.2015L15.7031 15.6055H12.5022L9.99777 12.3276L7.12835 15.6055H5.53795L9.25446 11.3566L5.33371 6.23047H8.61495L10.8817 9.22712L13.5 6.23047H15.0904ZM13.8248 14.6546L8.13616 7.13114H7.18862L12.9408 14.6546H13.8214H13.8248Z" fill="#7B7B7B"/>
</g>
</svg>
